<svg fill="#fff" xmlns="http://www.w3.org/2000/svg"  viewBox="0 0 24 24" width="48px" height="48px"><path d="M 12.001953 0.001953125 C 11.599203 0.001953125 11.195359 0.094296875 10.880859 0.27929688 L 2.609375 5.1582031 C 1.987375 5.5262031 1.5 6.3880938 1.5 7.1210938 L 1.5 16.878906 C 1.5 17.233906 1.6133594 17.630094 1.8183594 17.996094 C 2.0263594 18.363094 2.3083281 18.663797 2.6113281 18.841797 L 10.880859 23.720703 C 11.194859 23.905703 11.597 23.998047 12 23.998047 C 12.403 23.998047 12.805141 23.905703 13.119141 23.720703 L 21.386719 18.841797 C 21.690719 18.663797 21.973641 18.362141 22.181641 17.994141 C 22.386641 17.629141 22.498047 17.233906 22.498047 16.878906 L 22.498047 7.1269531 C 22.501047 6.7709531 22.390594 6.3719063 22.183594 6.0039062 C 21.977594 5.6399063 21.696578 5.3392031 21.392578 5.1582031 C 21.392578 5.1582031 21.390625 5.1582031 21.390625 5.1582031 L 13.121094 0.27929688 C 12.806594 0.094296875 12.404703 0.001953125 12.001953 0.001953125 z M 12.001953 1 C 12.228953 1 12.453281 1.046625 12.613281 1.140625 L 20.882812 6.0175781 C 21.037812 6.1095781 21.1935 6.2841406 21.3125 6.4941406 C 21.4335 6.7081406 21.502953 6.9360938 21.501953 7.1210938 L 21.501953 16.878906 C 21.501953 17.062906 21.4325 17.290906 21.3125 17.503906 C 21.1925 17.716906 21.035812 17.890469 20.882812 17.980469 L 12.613281 22.859375 C 12.291281 23.047375 11.707672 23.047375 11.388672 22.859375 L 3.1171875 17.978516 C 2.9641875 17.889516 2.8094531 17.716859 2.6894531 17.505859 C 2.5694531 17.291859 2.5 17.062906 2.5 16.878906 L 2.5 7.1210938 C 2.5 6.7350938 2.7951406 6.2105312 3.1191406 6.0195312 L 11.390625 1.1425781 C 11.550625 1.0475781 11.775953 1 12.001953 1 z M 11.498047 4.5 C 7.3820469 4.5 4.03125 7.864 4.03125 12 C 4.03125 16.136 7.382 19.5 11.5 19.5 C 14.177 19.495 16.593891 18.094906 17.962891 15.753906 C 18.030891 15.638906 18.047672 15.501047 18.013672 15.373047 C 17.980672 15.244047 17.89625 15.134359 17.78125 15.068359 L 14.765625 13.316406 C 14.528625 13.177406 14.213219 13.274672 14.074219 13.513672 C 13.539219 14.427672 12.551094 14.996047 11.496094 14.998047 C 9.8520937 14.998047 8.515625 13.652047 8.515625 11.998047 C 8.515625 10.344047 9.8520937 8.9980469 11.496094 8.9980469 C 12.567094 8.9990469 13.533984 9.5639063 14.083984 10.503906 C 14.222984 10.741906 14.529578 10.820594 14.767578 10.683594 L 17.78125 8.9296875 C 17.89725 8.8626875 17.971859 8.7354219 18.005859 8.6074219 C 18.038859 8.4794219 18.010359 8.3278906 17.943359 8.2128906 C 16.603359 5.9278906 14.136047 4.505 11.498047 4.5 z M 11.496094 5.5 C 13.617094 5.504 15.614078 6.5661719 16.830078 8.3261719 L 14.671875 9.5820312 C 13.915875 8.5840313 12.762047 8.002 11.498047 8 C 9.3020469 8 7.515625 9.794 7.515625 12 C 7.515625 14.206 9.3010469 16 11.498047 16 C 12.735047 15.997 13.902969 15.410063 14.667969 14.414062 L 16.830078 15.673828 C 15.608078 17.448828 13.650047 18.496 11.498047 18.5 C 7.9320469 18.5 5.03125 15.584 5.03125 12 C 5.03125 8.416 7.9320937 5.5 11.496094 5.5 z M 16.5 10.5 C 16.224 10.5 16 10.724 16 11 L 16 11.5 L 15.5 11.5 C 15.224 11.5 15 11.724 15 12 C 15 12.276 15.224 12.5 15.5 12.5 L 16 12.5 L 16 13 C 16 13.276 16.224 13.5 16.5 13.5 C 16.776 13.5 17 13.276 17 13 L 17 12.5 L 17.5 12.5 C 17.776 12.5 18 12.276 18 12 C 18 11.724 17.776 11.5 17.5 11.5 L 17 11.5 L 17 11 C 17 10.724 16.776 10.5 16.5 10.5 z M 20 10.5 C 19.724 10.5 19.5 10.724 19.5 11 L 19.5 11.5 L 19 11.5 C 18.724 11.5 18.5 11.724 18.5 12 C 18.5 12.276 18.724 12.5 19 12.5 L 19.5 12.5 L 19.5 13 C 19.5 13.276 19.724 13.5 20 13.5 C 20.276 13.5 20.5 13.276 20.5 13 L 20.5 12.5 L 21 12.5 C 21.276 12.5 21.5 12.276 21.5 12 C 21.5 11.724 21.276 11.5 21 11.5 L 20.5 11.5 L 20.5 11 C 20.5 10.724 20.276 10.5 20 10.5 z"/></svg>